<svg xmlns="http://www.w3.org/2000/svg" viewBox="0 0 1400 1000">
  <defs>
    <style>
      .actor { fill: #2563eb; }
      .actor-label { font-family: Arial, sans-serif; font-size: 11px; fill: #1e3a5f; font-weight: bold; text-anchor: middle; }
      .usecase { fill: #e0f2fe; stroke: #0284c7; stroke-width: 2; }
      .usecase-text { font-family: Arial, sans-serif; font-size: 10px; fill: #0c4a6e; text-anchor: middle; }
      .package { fill: none; stroke: #64748b; stroke-width: 2; stroke-dasharray: 5,3; }
      .package-label { font-family: Arial, sans-serif; font-size: 13px; fill: #334155; font-weight: bold; }
      .line { stroke: #64748b; stroke-width: 1.5; fill: none; }
      .inherit { stroke: #2563eb; stroke-width: 2; fill: none; marker-end: url(#arrowhead); }
      .title { font-family: Arial, sans-serif; font-size: 22px; fill: #1e293b; font-weight: bold; text-anchor: middle; }
      .subtitle { font-family: Arial, sans-serif; font-size: 12px; fill: #64748b; text-anchor: middle; }
    </style>
    <marker id="arrowhead" markerWidth="10" markerHeight="7" refX="9" refY="3.5" orient="auto">
      <polygon points="0 0, 10 3.5, 0 7" fill="#2563eb"/>
    </marker>
  </defs>

  <!-- Background -->
  <rect width="1400" height="1000" fill="#fafafa"/>

  <!-- Title -->
  <text x="700" y="35" class="title">Diagramme de Cas d'Utilisation - Projet Pro</text>
  <text x="700" y="55" class="subtitle">Réseau Social Professionnel</text>

  <!-- ==================== ACTEURS ==================== -->

  <!-- Visiteur -->
  <circle cx="70" cy="200" r="15" class="actor"/>
  <line x1="70" y1="215" x2="70" y2="250" stroke="#2563eb" stroke-width="2"/>
  <line x1="45" y1="230" x2="95" y2="230" stroke="#2563eb" stroke-width="2"/>
  <line x1="70" y1="250" x2="50" y2="280" stroke="#2563eb" stroke-width="2"/>
  <line x1="70" y1="250" x2="90" y2="280" stroke="#2563eb" stroke-width="2"/>
  <text x="70" y="300" class="actor-label">Visiteur</text>

  <!-- Utilisateur -->
  <circle cx="70" cy="420" r="15" class="actor"/>
  <line x1="70" y1="435" x2="70" y2="470" stroke="#2563eb" stroke-width="2"/>
  <line x1="45" y1="450" x2="95" y2="450" stroke="#2563eb" stroke-width="2"/>
  <line x1="70" y1="470" x2="50" y2="500" stroke="#2563eb" stroke-width="2"/>
  <line x1="70" y1="470" x2="90" y2="500" stroke="#2563eb" stroke-width="2"/>
  <text x="70" y="520" class="actor-label">Utilisateur</text>

  <!-- Modérateur -->
  <circle cx="70" cy="620" r="15" class="actor"/>
  <line x1="70" y1="635" x2="70" y2="670" stroke="#2563eb" stroke-width="2"/>
  <line x1="45" y1="650" x2="95" y2="650" stroke="#2563eb" stroke-width="2"/>
  <line x1="70" y1="670" x2="50" y2="700" stroke="#2563eb" stroke-width="2"/>
  <line x1="70" y1="670" x2="90" y2="700" stroke="#2563eb" stroke-width="2"/>
  <text x="70" y="720" class="actor-label">Modérateur</text>

  <!-- Admin -->
  <circle cx="70" cy="800" r="15" class="actor"/>
  <line x1="70" y1="815" x2="70" y2="850" stroke="#2563eb" stroke-width="2"/>
  <line x1="45" y1="830" x2="95" y2="830" stroke="#2563eb" stroke-width="2"/>
  <line x1="70" y1="850" x2="50" y2="880" stroke="#2563eb" stroke-width="2"/>
  <line x1="70" y1="850" x2="90" y2="880" stroke="#2563eb" stroke-width="2"/>
  <text x="70" y="900" class="actor-label">Admin</text>

  <!-- Super Admin -->
  <circle cx="70" cy="950" r="15" class="actor"/>
  <line x1="70" y1="965" x2="70" y2="1000" stroke="#2563eb" stroke-width="2"/>
  <line x1="45" y1="980" x2="95" y2="980" stroke="#2563eb" stroke-width="2"/>
  <line x1="70" y1="1000" x2="50" y2="1030" stroke="#2563eb" stroke-width="2"/>
  <line x1="70" y1="1000" x2="90" y2="1030" stroke="#2563eb" stroke-width="2"/>
  <text x="70" y="1050" class="actor-label">Super Admin</text>

  <!-- Héritage acteurs -->
  <path d="M70,310 L70,400" class="inherit"/>
  <path d="M70,530 L70,600" class="inherit"/>
  <path d="M70,730 L70,780" class="inherit"/>
  <path d="M70,910 L70,930" class="inherit"/>

  <!-- ==================== PACKAGE: AUTHENTIFICATION ==================== -->
  <rect x="150" y="80" width="250" height="160" rx="10" class="package"/>
  <text x="165" y="100" class="package-label">Authentification</text>

  <ellipse cx="230" cy="130" rx="60" ry="20" class="usecase"/>
  <text x="230" y="134" class="usecase-text">S'inscrire</text>

  <ellipse cx="230" cy="175" rx="60" ry="20" class="usecase"/>
  <text x="230" y="179" class="usecase-text">Se connecter</text>

  <ellipse cx="330" cy="130" rx="55" ry="20" class="usecase"/>
  <text x="330" y="134" class="usecase-text">Vérifier email</text>

  <ellipse cx="330" cy="175" rx="55" ry="20" class="usecase"/>
  <text x="330" y="179" class="usecase-text">Modifier mdp</text>

  <ellipse cx="280" cy="220" rx="55" ry="20" class="usecase"/>
  <text x="280" y="224" class="usecase-text">Modifier email</text>

  <!-- ==================== PACKAGE: CONSULTATION ==================== -->
  <rect x="420" y="80" width="280" height="160" rx="10" class="package"/>
  <text x="435" y="100" class="package-label">Consultation Publique</text>

  <ellipse cx="500" cy="130" rx="65" ry="20" class="usecase"/>
  <text x="500" y="134" class="usecase-text">Voir fil actualité</text>

  <ellipse cx="620" cy="130" rx="60" ry="20" class="usecase"/>
  <text x="620" y="134" class="usecase-text">Voir profils</text>

  <ellipse cx="500" cy="175" rx="55" ry="20" class="usecase"/>
  <text x="500" y="179" class="usecase-text">Rechercher</text>

  <ellipse cx="620" cy="175" rx="60" ry="20" class="usecase"/>
  <text x="620" y="179" class="usecase-text">Voir entreprises</text>

  <ellipse cx="560" cy="220" rx="55" ry="20" class="usecase"/>
  <text x="560" y="224" class="usecase-text">Voir un post</text>

  <!-- ==================== PACKAGE: PROFIL ==================== -->
  <rect x="720" y="80" width="280" height="200" rx="10" class="package"/>
  <text x="735" y="100" class="package-label">Gestion du Profil</text>

  <ellipse cx="800" cy="130" rx="65" ry="20" class="usecase"/>
  <text x="800" y="134" class="usecase-text">Modifier profil</text>

  <ellipse cx="920" cy="130" rx="65" ry="20" class="usecase"/>
  <text x="920" y="134" class="usecase-text">Voir dashboard</text>

  <ellipse cx="800" cy="175" rx="65" ry="20" class="usecase"/>
  <text x="800" y="179" class="usecase-text">Ajouter skill</text>

  <ellipse cx="920" cy="175" rx="65" ry="20" class="usecase"/>
  <text x="920" y="179" class="usecase-text">Ajouter expérience</text>

  <ellipse cx="800" cy="220" rx="65" ry="20" class="usecase"/>
  <text x="800" y="224" class="usecase-text">Ajouter formation</text>

  <ellipse cx="920" cy="220" rx="65" ry="20" class="usecase"/>
  <text x="920" y="224" class="usecase-text">Voir visiteurs</text>

  <ellipse cx="860" cy="260" rx="65" ry="20" class="usecase"/>
  <text x="860" y="264" class="usecase-text">Supprimer skill</text>

  <!-- ==================== PACKAGE: PUBLICATIONS ==================== -->
  <rect x="1020" y="80" width="240" height="200" rx="10" class="package"/>
  <text x="1035" y="100" class="package-label">Publications</text>

  <ellipse cx="1100" cy="130" rx="55" ry="20" class="usecase"/>
  <text x="1100" y="134" class="usecase-text">Créer post</text>

  <ellipse cx="1200" cy="130" rx="55" ry="20" class="usecase"/>
  <text x="1200" y="134" class="usecase-text">Supprimer post</text>

  <ellipse cx="1100" cy="175" rx="55" ry="20" class="usecase"/>
  <text x="1100" y="179" class="usecase-text">Commenter</text>

  <ellipse cx="1200" cy="175" rx="55" ry="20" class="usecase"/>
  <text x="1200" y="179" class="usecase-text">Répondre</text>

  <ellipse cx="1140" cy="220" rx="55" ry="20" class="usecase"/>
  <text x="1140" y="224" class="usecase-text">Voter</text>

  <ellipse cx="1140" cy="260" rx="70" ry="20" class="usecase"/>
  <text x="1140" y="264" class="usecase-text">Ajouter média</text>

  <!-- ==================== PACKAGE: RÉSEAU ==================== -->
  <rect x="150" y="260" width="260" height="200" rx="10" class="package"/>
  <text x="165" y="280" class="package-label">Réseau</text>

  <ellipse cx="240" cy="310" rx="75" ry="20" class="usecase"/>
  <text x="240" y="314" class="usecase-text">Envoyer demande</text>

  <ellipse cx="340" cy="310" rx="55" ry="20" class="usecase"/>
  <text x="340" y="314" class="usecase-text">Accepter</text>

  <ellipse cx="240" cy="355" rx="55" ry="20" class="usecase"/>
  <text x="240" y="359" class="usecase-text">Refuser</text>

  <ellipse cx="340" cy="355" rx="65" ry="20" class="usecase"/>
  <text x="340" y="359" class="usecase-text">Voir réseau</text>

  <ellipse cx="240" cy="400" rx="75" ry="20" class="usecase"/>
  <text x="240" y="404" class="usecase-text">Suppr. connexion</text>

  <ellipse cx="340" cy="400" rx="55" ry="20" class="usecase"/>
  <text x="340" y="404" class="usecase-text">Notifications</text>

  <ellipse cx="290" cy="440" rx="75" ry="20" class="usecase"/>
  <text x="290" y="444" class="usecase-text">Voir mes entreprises</text>

  <!-- ==================== PACKAGE: ENTREPRISE ==================== -->
  <rect x="430" y="260" width="280" height="200" rx="10" class="package"/>
  <text x="445" y="280" class="package-label">Gestion Entreprise</text>

  <ellipse cx="520" cy="310" rx="75" ry="20" class="usecase"/>
  <text x="520" y="314" class="usecase-text">Créer entreprise</text>

  <ellipse cx="640" cy="310" rx="55" ry="20" class="usecase"/>
  <text x="640" y="314" class="usecase-text">Modifier</text>

  <ellipse cx="520" cy="355" rx="70" ry="20" class="usecase"/>
  <text x="520" y="359" class="usecase-text">Poster (entreprise)</text>

  <ellipse cx="640" cy="355" rx="55" ry="20" class="usecase"/>
  <text x="640" y="359" class="usecase-text">Commenter</text>

  <ellipse cx="580" cy="400" rx="75" ry="20" class="usecase"/>
  <text x="580" y="404" class="usecase-text">Valider expérience</text>

  <ellipse cx="580" cy="440" rx="75" ry="20" class="usecase"/>
  <text x="580" y="444" class="usecase-text">Refuser expérience</text>

  <!-- ==================== PACKAGE: ADMINISTRATION ==================== -->
  <rect x="730" y="300" width="260" height="160" rx="10" class="package"/>
  <text x="745" y="320" class="package-label">Administration Entreprise</text>

  <ellipse cx="820" cy="355" rx="70" ry="20" class="usecase"/>
  <text x="820" y="359" class="usecase-text">Ajouter admin</text>

  <ellipse cx="920" cy="355" rx="60" ry="20" class="usecase"/>
  <text x="920" y="359" class="usecase-text">Suppr. admin</text>

  <ellipse cx="820" cy="400" rx="65" ry="20" class="usecase"/>
  <text x="820" y="404" class="usecase-text">Changer rôle</text>

  <ellipse cx="920" cy="400" rx="60" ry="20" class="usecase"/>
  <text x="920" y="404" class="usecase-text">Supprimer</text>

  <ellipse cx="870" cy="440" rx="80" ry="20" class="usecase"/>
  <text x="870" y="444" class="usecase-text">Supprimer entreprise</text>

  <!-- ==================== LIGNES DE CONNEXION ==================== -->

  <!-- Visiteur -> Authentification & Consultation -->
  <line x1="95" y1="200" x2="170" y2="130" class="line"/>
  <line x1="95" y1="200" x2="170" y2="175" class="line"/>
  <line x1="95" y1="200" x2="435" y2="130" class="line"/>
  <line x1="95" y1="200" x2="435" y2="175" class="line"/>
  <line x1="95" y1="200" x2="445" y2="175" class="line"/>
  <line x1="95" y1="200" x2="505" y2="220" class="line"/>

  <!-- Utilisateur -> Profil, Publications, Réseau -->
  <line x1="95" y1="420" x2="275" y2="130" class="line"/>
  <line x1="95" y1="420" x2="275" y2="175" class="line"/>
  <line x1="95" y1="420" x2="225" y2="220" class="line"/>
  <line x1="95" y1="420" x2="735" y2="130" class="line"/>
  <line x1="95" y1="420" x2="735" y2="175" class="line"/>
  <line x1="95" y1="420" x2="735" y2="220" class="line"/>
  <line x1="95" y1="420" x2="855" y2="130" class="line"/>
  <line x1="95" y1="420" x2="855" y2="175" class="line"/>
  <line x1="95" y1="420" x2="855" y2="220" class="line"/>
  <line x1="95" y1="420" x2="795" y2="260" class="line"/>
  <line x1="95" y1="420" x2="1045" y2="130" class="line"/>
  <line x1="95" y1="420" x2="1045" y2="175" class="line"/>
  <line x1="95" y1="420" x2="1085" y2="220" class="line"/>
  <line x1="95" y1="420" x2="1070" y2="260" class="line"/>
  <line x1="95" y1="420" x2="165" y2="310" class="line"/>
  <line x1="95" y1="420" x2="285" y2="310" class="line"/>
  <line x1="95" y1="420" x2="185" y2="355" class="line"/>
  <line x1="95" y1="420" x2="275" y2="355" class="line"/>
  <line x1="95" y1="420" x2="165" y2="400" class="line"/>
  <line x1="95" y1="420" x2="285" y2="400" class="line"/>
  <line x1="95" y1="420" x2="215" y2="440" class="line"/>
  <line x1="95" y1="420" x2="445" y2="310" class="line"/>

  <!-- Modérateur -> Entreprise (poster, commenter, valider) -->
  <line x1="95" y1="620" x2="450" y2="355" class="line"/>
  <line x1="95" y1="620" x2="585" y2="355" class="line"/>
  <line x1="95" y1="620" x2="505" y2="400" class="line"/>
  <line x1="95" y1="620" x2="505" y2="440" class="line"/>

  <!-- Admin -> Modifier entreprise -->
  <line x1="95" y1="800" x2="585" y2="310" class="line"/>

  <!-- Super Admin -> Administration -->
  <line x1="95" y1="950" x2="750" y2="355" class="line"/>
  <line x1="95" y1="950" x2="860" y2="355" class="line"/>
  <line x1="95" y1="950" x2="755" y2="400" class="line"/>
  <line x1="95" y1="950" x2="860" y2="400" class="line"/>
  <line x1="95" y1="950" x2="790" y2="440" class="line"/>

  <!-- ==================== LÉGENDE ==================== -->
  <rect x="1100" y="320" width="180" height="140" rx="5" fill="#f8fafc" stroke="#cbd5e1" stroke-width="1"/>
  <text x="1115" y="340" class="package-label">Légende</text>

  <circle cx="1120" cy="360" r="8" class="actor"/>
  <text x="1140" y="364" font-family="Arial" font-size="10" fill="#334155">Acteur</text>

  <ellipse cx="1120" cy="390" rx="15" ry="10" class="usecase"/>
  <text x="1145" y="394" font-family="Arial" font-size="10" fill="#334155">Cas d'utilisation</text>

  <line x1="1110" y1="415" x2="1135" y2="415" class="line"/>
  <text x="1145" y="419" font-family="Arial" font-size="10" fill="#334155">Association</text>

  <line x1="1110" y1="440" x2="1135" y2="440" class="inherit"/>
  <text x="1145" y="444" font-family="Arial" font-size="10" fill="#334155">Héritage</text>

</svg>